<?xml version="1.0" encoding="UTF-8"?>
<svg id="Layer_2" data-name="Layer 2" xmlns="http://www.w3.org/2000/svg" xmlns:xlink="http://www.w3.org/1999/xlink" viewBox="0 0 3262.51 1640.58">
  <defs>
    <style>
      .cls-1, .cls-2, .cls-3, .cls-4, .cls-5 {
        fill: none;
      }

      .cls-6 {
        clip-path: url(#clippath);
      }

      .cls-2 {
        stroke: #e5383b;
      }

      .cls-2, .cls-3, .cls-7, .cls-8, .cls-9, .cls-5 {
        stroke-miterlimit: 10;
      }

      .cls-2, .cls-3, .cls-9 {
        stroke-width: 15px;
      }

      .cls-3, .cls-8, .cls-4, .cls-9, .cls-5 {
        stroke: #000;
      }

      .cls-10 {
        fill: #f5f3f4;
      }

      .cls-11 {
        fill: #ff0;
      }

      .cls-12 {
        fill: #e5383b;
      }

      .cls-13 {
        fill: #ba181b;
      }

      .cls-14 {
        fill: #d3d3d3;
      }

      .cls-15 {
        fill: #111323;
      }

      .cls-7 {
        fill: #fffcf9;
        font-family: Bungee-Regular, Bungee;
        font-size: 500px;
        stroke: #140800;
        stroke-width: 12px;
      }

      .cls-16 {
        clip-path: url(#clippath-1);
      }

      .cls-8 {
        fill: #b1a7a6;
      }

      .cls-8, .cls-4, .cls-5 {
        stroke-width: .5px;
      }

      .cls-17 {
        letter-spacing: 0em;
      }

      .cls-4 {
        stroke-linecap: round;
        stroke-linejoin: round;
      }

      .cls-9 {
        fill: #161a1d;
      }

      .cls-18 {
        letter-spacing: 0em;
      }

      .cls-19 {
        letter-spacing: 0em;
      }
    </style>
    <clipPath id="clippath">
      <ellipse class="cls-1" cx="653.71" cy="840.77" rx="583.18" ry="545.74"/>
    </clipPath>
    <clipPath id="clippath-1">
      <path class="cls-5" d="M934.15,1262.57c-380.81,0-689.51-308.7-689.51-689.51,0-217.31,100.53-411.13,257.61-537.51C216.26,119.57,7.45,383.98,7.45,697.17c0,380.81,308.7,689.51,689.51,689.51,163.5,0,313.71-56.91,431.9-152-61.75,18.14-127.09,27.88-194.7,27.88Z"/>
    </clipPath>
  </defs>
  <g id="Layer_1-2" data-name="Layer 1">
    <g>
      <g>
        <circle class="cls-9" cx="697.01" cy="697.01" r="689.51"/>
        <g class="cls-6">
          <path class="cls-11" d="M1149.43,1377.47c-6.73,69.29-15.45,137.68-26.07,205.13-376.81-59.26-523.54-357.13-504.84-623.06,20.29-268.33,206-504.73,530.91-496.36-7.39-.17-13.67,.57-18.83,2.11-272.57,33.71-406.53,241.12-408.42,458.53-.29,215.02,131.48,440.03,427.24,453.65Z"/>
        </g>
        <g>
          <circle class="cls-4" cx="980.15" cy="400.84" r="72.34"/>
          <g>
            <g>
              <path class="cls-13" d="M933.4,792.55c-8.9,11.1-18.56,21.2-28.81,30.3,33-59.37,38.47-127.6,17.68-185.87,19.42-13.89,38.87-29.37,57.76-46.55,16.83,66.02,1.85,141.7-46.63,202.13Z"/>
              <path class="cls-14" d="M1039.46,527.43c-18.59,23.17-38.66,44.11-59.42,63-10.14-39.81-31.86-76.11-64.77-103.44,1.67-5.33,2.44-8.32,2.44-8.32,0,0-2.75,1.4-7.59,4.18-33.82-26.21-73.96-39.54-115.02-40.81,13.93-24.36,30.03-48.5,48.62-71.66,37.89-47.22,81.95-85.2,125.41-115.34,20.82,23.79,45.17,47.19,72.53,69.14,27.37,21.96,55.48,40.65,83.22,55.83-20,48.96-47.53,100.2-85.42,147.42Zm-10.67-87.56c21.56-26.87,17.25-66.12-9.61-87.67-26.87-21.56-66.12-17.25-87.67,9.61s-17.25,66.12,9.61,87.67c26.87,21.56,66.12,17.25,87.67-9.61Z"/>
              <path class="cls-14" d="M980.03,590.43c-18.89,17.18-38.34,32.66-57.76,46.55-9.11-25.54-23.27-49.17-42.36-69.29,19.91-35.22,30.88-66.39,35.35-80.7,32.92,27.33,54.63,63.63,64.77,103.44Z"/>
              <path class="cls-14" d="M922.27,636.98c-18.97,13.58-37.91,25.64-56.25,36.32-2.68-3.41-5.47-6.8-8.35-10.17l16.28-20.29-28.99-23.26c13.87-17.29,25.43-35.05,34.95-51.88,19.09,20.13,33.25,43.75,42.36,69.29Z"/>
              <path class="cls-15" d="M857.66,663.12l-14.94,18.62-31.62-25.37c6.77-6.47,13.57-13.43,20.26-20.86,9.49,8.97,18.28,18.21,26.3,27.6Z"/>
              <path class="cls-14" d="M873.95,642.82l-16.28,20.29c-8.02-9.4-16.8-18.64-26.3-27.6,4.6-5.09,9.14-10.41,13.59-15.95l28.99,23.26Z"/>
              <path class="cls-13" d="M1124.88,380c-27.74-15.17-55.85-33.87-83.22-55.83l135.98-169.48s-3.93,105.8-52.76,225.3Z"/>
              <circle class="cls-15" cx="980.15" cy="400.84" r="62.37"/>
              <path class="cls-13" d="M844.96,619.56l-24.52-19.67,40.12-50.01c6.93,5.56,13.38,11.51,19.35,17.8-9.52,16.83-21.08,34.59-34.95,51.88Z"/>
              <path class="cls-13" d="M820.44,599.89l24.52,19.67c-4.45,5.54-8.99,10.86-13.59,15.95-7.34-6.93-15.1-13.7-23.26-20.25l12.33-15.37Z"/>
              <path class="cls-13" d="M831.37,635.52c-6.69,7.42-13.5,14.38-20.26,20.86l-21.89-17.56,18.89-23.54c8.16,6.55,15.93,13.32,23.26,20.25Z"/>
              <path class="cls-13" d="M789.22,638.81l21.89,17.56c-44.73,42.78-87.93,64.74-87.93,64.74l66.04-82.31Z"/>
              <path class="cls-13" d="M915.26,486.99c-4.48,14.31-15.44,45.48-35.35,80.7-5.97-6.29-12.42-12.24-19.35-17.8l52.14-64.99c.86,.69,1.71,1.39,2.56,2.09Z"/>
              <path class="cls-14" d="M915.26,486.99c-.84-.7-1.7-1.4-2.56-2.09l5-6.23s-.77,2.99-2.44,8.32Z"/>
              <path class="cls-12" d="M789.22,638.81l-66.04,82.31s12.08-46.93,44.15-99.87l21.89,17.56Z"/>
              <path class="cls-12" d="M808.11,615.26l-18.89,23.54-21.89-17.56c4.85-8.01,10.17-16.16,15.97-24.3,8.35,5.66,16.65,11.77,24.81,18.32Z"/>
              <path class="cls-12" d="M820.44,599.89l-12.33,15.37c-8.16-6.55-16.46-12.66-24.81-18.32,3.98-5.59,8.18-11.18,12.63-16.72l24.52,19.67Z"/>
              <path class="cls-12" d="M860.56,549.89l-40.12,50.01-24.52-19.67c13.87-17.29,28.7-32.42,43.07-45.36,7.43,4.46,14.64,9.47,21.57,15.03Z"/>
              <path class="cls-12" d="M912.7,484.9l-52.14,64.99c-6.93-5.56-14.13-10.57-21.57-15.03,30.07-27.07,58.12-44.53,71.12-52,.87,.67,1.73,1.35,2.59,2.04Z"/>
              <path class="cls-14" d="M917.7,478.67l-5,6.23c-.86-.69-1.73-1.37-2.59-2.04,4.84-2.78,7.59-4.18,7.59-4.18Z"/>
              <path class="cls-12" d="M1177.63,154.7l-135.98,169.48c-27.37-21.96-51.71-45.35-72.53-69.14,106.07-73.57,208.51-100.33,208.51-100.33Z"/>
              <path class="cls-14" d="M910.11,482.85c-13,7.47-41.05,24.93-71.12,52-23.79-14.27-49.92-22.98-76.83-26.34,9.36-21.97,20.25-44.31,32.93-66.48,41.06,1.27,81.2,14.6,115.02,40.81Z"/>
              <path class="cls-15" d="M767.33,621.24l-31.62-25.37,14.94-18.62c10.91,5.79,21.83,12.36,32.65,19.69-5.8,8.14-11.11,16.29-15.97,24.3Z"/>
              <path class="cls-14" d="M838.99,534.86c-14.37,12.94-29.2,28.07-43.07,45.36l-28.99-23.26-16.28,20.29c-3.92-2.09-7.84-4.07-11.74-5.95,6.45-20.22,14.12-41.32,23.26-62.79,26.91,3.36,53.04,12.06,76.83,26.34Z"/>
              <path class="cls-14" d="M795.92,580.22c-4.45,5.54-8.65,11.13-12.63,16.72-10.81-7.33-21.74-13.9-32.65-19.69l16.28-20.29,28.99,23.26Z"/>
              <path class="cls-12" d="M795.09,442.04c-12.68,22.17-23.57,44.51-32.93,66.48-61.39-7.67-126.81,12.46-177.62,57.54,6.65-11.98,14.43-23.59,23.33-34.69,48.48-60.42,119.12-91.46,187.22-89.33Z"/>
            </g>
            <g>
              <polyline class="cls-3" points="767.33 621.24 735.71 595.88 750.65 577.25"/>
              <polyline class="cls-3" points="857.66 663.12 842.72 681.74 811.11 656.37"/>
              <path class="cls-3" d="M795.09,442.04c-68.1-2.12-138.74,28.91-187.22,89.33-8.9,11.1-16.68,22.72-23.33,34.69,50.81-45.08,116.23-65.21,177.62-57.54"/>
              <path class="cls-3" d="M922.27,636.98c20.79,58.27,15.32,126.5-17.68,185.87,10.25-9.09,19.91-19.2,28.81-30.3,48.48-60.42,63.47-136.11,46.63-202.13"/>
              <path class="cls-3" d="M783.29,596.94c-10.81-7.33-21.74-13.9-32.65-19.69-3.92-2.09-7.84-4.07-11.74-5.95,6.45-20.22,14.12-41.32,23.26-62.79,9.36-21.97,20.25-44.31,32.93-66.48,13.93-24.36,30.03-48.5,48.62-71.66,37.89-47.22,81.95-85.2,125.41-115.34"/>
              <path class="cls-3" d="M1124.88,380c-20,48.96-47.53,100.2-85.42,147.42-18.59,23.17-38.66,44.11-59.42,63-18.89,17.18-38.34,32.66-57.76,46.55-18.97,13.58-37.91,25.64-56.25,36.32-2.68-3.41-5.47-6.8-8.35-10.17-8.02-9.4-16.8-18.64-26.3-27.6"/>
              <path class="cls-3" d="M1124.88,380c-27.74-15.17-55.85-33.87-83.22-55.83-27.37-21.96-51.71-45.35-72.53-69.14,106.07-73.57,208.51-100.33,208.51-100.33,0,0-3.93,105.8-52.76,225.3Z"/>
              <path class="cls-3" d="M795.92,580.22c-4.45,5.54-8.65,11.13-12.63,16.72-5.8,8.14-11.11,16.29-15.97,24.3-32.07,52.93-44.15,99.87-44.15,99.87,0,0,43.2-21.96,87.93-64.74,6.77-6.47,13.57-13.43,20.26-20.86,4.6-5.09,9.14-10.41,13.59-15.95,13.87-17.29,25.43-35.05,34.95-51.88,19.91-35.22,30.88-66.39,35.35-80.7,1.67-5.33,2.44-8.32,2.44-8.32,0,0-2.75,1.4-7.59,4.18-13,7.47-41.05,24.93-71.12,52-14.37,12.94-29.2,28.07-43.07,45.36Z"/>
              <circle class="cls-2" cx="980.15" cy="400.84" r="62.37"/>
            </g>
          </g>
        </g>
        <path class="cls-10" d="M934.2,1262.41c-380.81,0-689.51-308.7-689.51-689.51,0-217.31,100.53-411.13,257.61-537.51C216.31,119.41,7.5,383.82,7.5,697.01c0,380.81,308.7,689.51,689.51,689.51,163.5,0,313.71-56.91,431.9-152-61.75,18.14-127.09,27.88-194.7,27.88Z"/>
        <g>
          <g class="cls-16">
            <circle class="cls-8" cx="198.15" cy="278.82" r="90.67"/>
            <circle class="cls-8" cx="178.74" cy="671.68" r="77.04"/>
            <circle class="cls-8" cx="226.42" cy="1202.77" r="90.67"/>
            <circle class="cls-8" cx="664.26" cy="1193.8" r="90.67"/>
          </g>
          <path class="cls-5" d="M934.15,1262.57c-380.81,0-689.51-308.7-689.51-689.51,0-217.31,100.53-411.13,257.61-537.51C216.26,119.57,7.45,383.98,7.45,697.17c0,380.81,308.7,689.51,689.51,689.51,163.5,0,313.71-56.91,431.9-152-61.75,18.14-127.09,27.88-194.7,27.88Z"/>
        </g>
      </g>
      <text class="cls-7" transform="translate(1420.52 577.09)"><tspan class="cls-18" x="0" y="0">T</tspan><tspan x="325.5" y="0">o</tspan><tspan class="cls-19" x="694" y="0"> </tspan><tspan class="cls-17" x="801.5" y="0">The</tspan><tspan x="0" y="600">Moon</tspan></text>
    </g>
  </g>
</svg>